<?xml version="1.0" encoding="utf-8"?>
<!-- Generator: Adobe Illustrator 21.1.0, SVG Export Plug-In . SVG Version: 6.00 Build 0)  -->
<svg version="1.1" id="Layer_1" xmlns="http://www.w3.org/2000/svg" xmlns:xlink="http://www.w3.org/1999/xlink" x="0px" y="0px"
	 viewBox="0 0 363.4 44.8" style="enable-background:new 0 0 363.4 44.8;" xml:space="preserve">
<style type="text/css">
	.st0{fill:#ED1C24;}
</style>
<g>
	<g>
		<path class="st0" d="M61,7.3h2.4l4.8,17l6.8-17h0.5l6.7,17l4.9-17h2.4l-6.8,23.6h-0.4l-7-17.9l-7.2,17.9h-0.4L61,7.3z"/>
		<path class="st0" d="M94,7.3h13.5v2.3H96.3V17h11.1v2.3H96.3v9.3h11.1v2.3H94V7.3z"/>
		<path class="st0" d="M118.3,26.5l2-1.2c1.4,2.6,3,3.9,4.9,3.9c0.8,0,1.5-0.2,2.2-0.6c0.7-0.4,1.2-0.9,1.6-1.5
			c0.4-0.6,0.5-1.3,0.5-2c0-0.8-0.3-1.6-0.8-2.3c-0.7-1.1-2.1-2.3-4.1-3.8c-2-1.5-3.2-2.6-3.7-3.2c-0.8-1.1-1.3-2.3-1.3-3.6
			c0-1,0.2-2,0.7-2.8c0.5-0.8,1.2-1.5,2.1-2c0.9-0.5,1.9-0.7,2.9-0.7c1.1,0,2.2,0.3,3.1,0.8c1,0.6,2,1.6,3.1,3l-1.9,1.5
			c-0.9-1.2-1.6-2-2.3-2.3c-0.6-0.4-1.3-0.6-2-0.6c-1,0-1.7,0.3-2.3,0.9s-0.9,1.3-0.9,2.1c0,0.5,0.1,1,0.3,1.5
			c0.2,0.5,0.6,1,1.2,1.6c0.3,0.3,1.3,1.1,3.1,2.4c2,1.5,3.5,2.9,4.2,4s1.1,2.4,1.1,3.6c0,1.7-0.7,3.2-2,4.5s-2.9,1.9-4.7,1.9
			c-1.4,0-2.7-0.4-3.9-1.1C120.4,29.6,119.3,28.3,118.3,26.5z"/>
		<path class="st0" d="M137.1,7.3h4.7c2.7,0,4.5,0.1,5.5,0.4c1.4,0.3,2.5,1,3.3,2c0.9,1,1.3,2.3,1.3,3.9c0,1.6-0.4,2.9-1.3,3.9
			s-2,1.7-3.5,2.1c-1.1,0.3-3.1,0.4-6,0.4h-1.7v11h-2.4V7.3z M139.5,9.6v8l4,0c1.6,0,2.8-0.1,3.6-0.4s1.3-0.8,1.8-1.4
			c0.4-0.7,0.6-1.4,0.6-2.2c0-0.8-0.2-1.5-0.6-2.2c-0.4-0.7-1-1.1-1.7-1.4c-0.7-0.3-1.9-0.4-3.4-0.4H139.5z"/>
		<path class="st0" d="M156.7,7.3h4.7c2.6,0,4.4,0.1,5.3,0.3c1.4,0.3,2.5,1,3.4,2.1c0.9,1.1,1.3,2.4,1.3,3.9c0,1.3-0.3,2.4-0.9,3.4
			c-0.6,1-1.5,1.7-2.6,2.2c-1.1,0.5-2.7,0.8-4.7,0.8l8.5,11h-2.9l-8.5-11h-1.3v11h-2.4V7.3z M159.1,9.6v8l4.1,0
			c1.6,0,2.7-0.1,3.5-0.5c0.8-0.3,1.3-0.8,1.8-1.4c0.4-0.7,0.6-1.4,0.6-2.2c0-0.8-0.2-1.5-0.6-2.2c-0.4-0.6-1-1.1-1.7-1.4
			s-1.9-0.4-3.5-0.4H159.1z"/>
		<path class="st0" d="M176.6,7.3h13.5v2.3H179V17h11.1v2.3H179v9.3h11.1v2.3h-13.5V7.3z"/>
		<path class="st0" d="M203.9,7.3l11,23.6h-2.6l-3.7-7.8h-10.2l-3.7,7.8h-2.6l11.2-23.6H203.9z M203.6,12.3l-4.1,8.6h8.1L203.6,12.3
			z"/>
		<path class="st0" d="M218.6,30.9V7.3h4.9c3.5,0,6.1,0.3,7.7,0.9c2.3,0.8,4.1,2.2,5.4,4.2s1.9,4.3,1.9,7.1c0,2.4-0.5,4.5-1.5,6.3
			c-1,1.8-2.4,3.1-4,4c-1.6,0.9-3.9,1.3-6.9,1.3H218.6z M220.8,28.7h2.7c3.3,0,5.5-0.2,6.8-0.6c1.8-0.6,3.2-1.6,4.2-3.1
			c1-1.5,1.5-3.3,1.5-5.5c0-2.3-0.6-4.2-1.7-5.8c-1.1-1.6-2.6-2.7-4.6-3.3c-1.5-0.4-3.9-0.7-7.3-0.7h-1.7V28.7z"/>
	</g>
	<g id="rk7jHA_1_">
		<g>
			<path class="st0" d="M277.2,34.3c-3.4-2.3-6.8-4.4-10-6.6c-2.8-2-5.6-3.9-8.1-6.2c-3.4-3.3-4.6-7.5-3.4-12.2
				c2-7.8,9.7-11.1,17.2-7.1c2.6,1.4,4.8,3.5,7.4,5.4c0.2-0.2,0.6-0.8,1.1-1.4c3.2-3.7,7-5.5,12-4.9c6.3,0.8,10,6.4,8.3,12.5
				c-1.3,4.6-4.3,8-7.8,11c-3.7,3.1-7.5,6.1-11.3,9.1c-1,0.8-1.4,1.5-1,2.9c0.8,2.8-1.2,6.6-3.9,7.8c-1.7,0.8-3.5-0.1-3.6-2
				c0-1.6,0.4-3.3,1-4.9C275.4,36.6,276.3,35.7,277.2,34.3z M279.7,32.2c3.3-2.7,7.1-5.3,10.4-8.4c2.9-2.7,5.5-5.6,7.8-8.8
				c2-2.9,1.6-6.2-0.3-8.4c-2.3-2.5-5.2-3.1-8.4-2.1c-3.5,1-5.8,3.5-7.5,6.6c-1.1,2-1.9,2-3.3,0.3c-0.4-0.5-0.8-1.1-1.1-1.7
				c-1.9-2.8-4.5-4.8-7.8-5.6c-4.8-1.3-9.2,0.7-10.6,4.9c-1.1,3.2-0.8,6.4,1.4,9.1c1.6,1.9,3.5,3.7,5.5,5.1
				C270.3,26.2,274.9,29.1,279.7,32.2z"/>
		</g>
	</g>
</g>
</svg>
